<svg viewBox="0 0 64 64" xmlns="http://www.w3.org/2000/svg">
  <defs>
    <linearGradient id="moonG" x1="0" y1="0" x2="1" y2="1">
      <stop offset="0" stop-color="#E3F2FD"/>
      <stop offset="1" stop-color="#B3E5FC"/>
    </linearGradient>
    <linearGradient id="cloudG" x1="0" y1="0" x2="0" y2="1">
      <stop offset="0" stop-color="#ECEFF1"/>
      <stop offset="1" stop-color="#B0BEC5"/>
    </linearGradient>
  </defs>

  <!-- Moon behind cloud -->
  <path
    d="M30 12c-5.5 2-9.4 7.2-9.4 13.3C20.6 33.5 27.1 40 35.3 40
       c3.3 0 6.4-1 8.9-2.8C41.8 43.7 35.8 48 29 48
       C18.5 48 10 39.5 10 29S18.5 10 29 10c.4 0 .7 0 1 0z"
    fill="url(#moonG)"
    stroke="#90CAF9"
    stroke-width="1.3"
    stroke-linejoin="round"
    opacity="0.95"
  />

  <!-- Cloud in front -->
  <path
    d="M18 46h30a10 10 0 0 0 0-20c-.6 0-1.2.05-1.8.15A13.5 13.5 0 0 0 19.6 22
       A10.5 10.5 0 0 0 18 46z"
    fill="url(#cloudG)"
    stroke="#90A4AE"
    stroke-width="1.6"
    stroke-linejoin="round"
  />
</svg>
