<svg viewBox="0 0 64 64" xmlns="http://www.w3.org/2000/svg">
  <defs>
    <linearGradient id="sunG" x1="0" y1="0" x2="1" y2="1">
      <stop offset="0" stop-color="#FFD54F"/>
      <stop offset="1" stop-color="#FFB300"/>
    </linearGradient>
    <linearGradient id="cloudG" x1="0" y1="0" x2="0" y2="1">
      <stop offset="0" stop-color="#ECEFF1"/>
      <stop offset="1" stop-color="#B0BEC5"/>
    </linearGradient>
  </defs>

  <!-- Sun behind cloud -->
  <g opacity="0.98">
    <circle cx="24" cy="24" r="10" fill="url(#sunG)"/>
    <g stroke="#FFB300" stroke-width="2.5" stroke-linecap="round" opacity="0.9">
      <line x1="24" y1="7" x2="24" y2="12"/>
      <line x1="24" y1="36" x2="24" y2="41"/>
      <line x1="7" y1="24" x2="12" y2="24"/>
      <line x1="36" y1="24" x2="41" y2="24"/>
      <line x1="12" y1="12" x2="15.5" y2="15.5"/>
      <line x1="32.5" y1="32.5" x2="36" y2="36"/>
      <line x1="12" y1="36" x2="15.5" y2="32.5"/>
      <line x1="32.5" y1="15.5" x2="36" y2="12"/>
    </g>
  </g>

  <!-- Cloud in front -->
  <path
    d="M18 46h30a10 10 0 0 0 0-20c-.6 0-1.2.05-1.8.15A13.5 13.5 0 0 0 19.6 22
       A10.5 10.5 0 0 0 18 46z"
    fill="url(#cloudG)"
    stroke="#90A4AE"
    stroke-width="1.6"
    stroke-linejoin="round"
  />
</svg>
